<svg id="Group_10" data-name="Group 10" xmlns="http://www.w3.org/2000/svg" width="75.442" height="62.996" viewBox="0 0 75.442 62.996">
  <g id="Group_6" data-name="Group 6" transform="translate(25.715 23.307)">
    <path id="Path_31" data-name="Path 31" d="M120.727,130.58c-.318-2.159-1.842-4.064-4.509-5.715a12.882,12.882,0,0,0-4.826-1.905,3.092,3.092,0,0,0-.762-.063h0a4.323,4.323,0,0,0-2.667.7c-1.651,1.08-2.477,3.493-2.032,6.1a8.094,8.094,0,0,1-.191,3.3c-.318,1.588-.635,3.112.7,4.89a5.949,5.949,0,0,0,4.826,2.223h.191c.318,0,.635-.064,1.016-.064h0a4.445,4.445,0,0,0,.889-.191,10.546,10.546,0,0,0,5.969-4.318,6.832,6.832,0,0,0,1.461-3.366,3.354,3.354,0,0,0,.064-.826C120.79,131.088,120.79,130.834,120.727,130.58Zm-1.588,3.81a3.586,3.586,0,0,1-.508.7v.064h0a9.511,9.511,0,0,1-4.318,3.62,3.58,3.58,0,0,1-.762.254,6.451,6.451,0,0,1-2.159.381,5.369,5.369,0,0,1-4.445-1.969c-1.143-1.588-.889-2.858-.572-4.382a8.076,8.076,0,0,0,.254-3.556c-.381-2.35.254-4.509,1.715-5.461a3.478,3.478,0,0,1,2.159-.635,7.905,7.905,0,0,1,4.064,1.27,4.272,4.272,0,0,1,.7.445c.127.127.318.191.445.318,2.477,1.524,3.874,3.3,4.191,5.207A5.435,5.435,0,0,1,119.139,134.39Z" transform="translate(-105.461 -118.96)" fill="#9f9c98"/>
    <path id="Path_32" data-name="Path 32" d="M116.61,140.351h0a10.522,10.522,0,0,1-4.128-7.557c-.508-5.271,5.271-7.494,5.334-7.494l.254.635c-.064,0-5.4,2.1-4.89,6.795a9.754,9.754,0,0,0,3.81,7.049l.191.191-.635.191.318-.064Z" transform="translate(-108.012 -119.84)" fill="#9f9c98"/>
    <path id="Path_33" data-name="Path 33" d="M121.383,138.951a6.806,6.806,0,0,0-2.54-4.509c-2.286-1.651-5.588-.762-5.652-.762l-.191-.635c.127-.064,3.683-.953,6.223.889a7.258,7.258,0,0,1,2.794,5.017Z" transform="translate(-108.213 -122.568)" fill="#9f9c98"/>
    <path id="Path_34" data-name="Path 34" d="M114.77,138.774a6.528,6.528,0,0,1-1.27-.127l.127-.635a6.384,6.384,0,0,0,3.112-.254A3.577,3.577,0,0,0,118.9,134.9l.635.064a4.321,4.321,0,0,1-2.6,3.429A5.011,5.011,0,0,1,114.77,138.774Z" transform="translate(-108.395 -123.344)" fill="#9f9c98"/>
    <path id="Path_35" data-name="Path 35" d="M123.534,129.973l-.318-.572c1.334-.635,2.794-3.048,2.858-5.652a5.8,5.8,0,0,0-3.112-5.525,5.536,5.536,0,0,0-6.414.318,8.282,8.282,0,0,0-2.477,2.6l-.572-.381c.064-.063,4.064-6.414,9.843-3.112a6.607,6.607,0,0,1,3.429,6.1C126.709,126.353,125.185,129.148,123.534,129.973Z" transform="translate(-108.395 -116.702)" fill="#9f9c98"/>
    <path id="Path_36" data-name="Path 36" d="M121.925,145.38a8.893,8.893,0,0,1-5.525-2.223l.445-.508c.063,0,3.3,3.175,7.239,1.651,4.826-1.842,4.445-6.858,4.191-8.319a9.153,9.153,0,0,0-1.588-3.937l.508-.445a9.96,9.96,0,0,1,1.715,4.255c.254,1.588.7,7.049-4.572,9.081A6.721,6.721,0,0,1,121.925,145.38Z" transform="translate(-109.454 -122.139)" fill="#9f9c98"/>
    <path id="Path_37" data-name="Path 37" d="M134.27,131.167l-.318-.572c.064,0,.953-.508,1.08-2.35.127-1.905-2.032-3.937-2.032-3.937l.445-.508c.127.064,2.413,2.286,2.223,4.509C135.6,130.531,134.334,131.167,134.27,131.167Z" transform="translate(-115.512 -119.292)" fill="#9f9c98"/>
  </g>
  <g id="Group_7" data-name="Group 7" transform="translate(33.424)">
    <path id="Path_38" data-name="Path 38" d="M129.475,93.98a4.979,4.979,0,0,0-.318-.889h0a11.138,11.138,0,0,0-.826-1.778,9.249,9.249,0,0,0-3.747-3.556l-.762-.381c-.572-.254-1.143-.508-1.715-.7a21.46,21.46,0,0,0-3.493-.889,10.139,10.139,0,0,1,3.175-2.413,8.739,8.739,0,0,1,4.445-.572,1.1,1.1,0,0,1,.445.064c.191.063.318-.064.381-.254s-.064-.318-.254-.381h0a10.289,10.289,0,0,0-5.271.572,11.168,11.168,0,0,0-3.874,3.048c0,.064-.064.064-.064.127v.064a36.017,36.017,0,0,0,.508,5.969,10.728,10.728,0,0,0,.635,2.159,12.409,12.409,0,0,0,1.207,2.223,15.252,15.252,0,0,0,3.874,3.937,15.838,15.838,0,0,0,2.159,1.27,19.289,19.289,0,0,0,2.6,1.08,1.616,1.616,0,0,0,.445.127h.191a.291.291,0,0,0,.254-.318v-.063a.48.48,0,0,1,.064-.254A17.257,17.257,0,0,0,129.475,93.98Zm-10.034-.127c-.953-2.159-1.08-6.223-1.08-7.494a23.879,23.879,0,0,1,3.62.953c1.969.7,4.572,2.032,5.906,4.382a13.777,13.777,0,0,1,.953,2.223v.063c0,.064,0,.064.063.127h0a18.6,18.6,0,0,1,.191,7.938C127.634,101.664,121.918,99.7,119.442,93.853Z" transform="translate(-117.6 -80.771)" fill="#9f9c98"/>
    <path id="Path_39" data-name="Path 39" d="M135.6,97.013h-.127a.328.328,0,0,1-.191-.445,12.361,12.361,0,0,1,6.1-5.969,10.87,10.87,0,0,1,7.684-.318.342.342,0,1,1-.254.635,10.244,10.244,0,0,0-7.176.318,12.282,12.282,0,0,0-5.779,5.652A.444.444,0,0,1,135.6,97.013Z" transform="translate(-124.046 -83.55)" fill="#9f9c98"/>
    <path id="Path_40" data-name="Path 40" d="M141.271,86.731a.28.28,0,0,1-.381-.254V86.35a11.024,11.024,0,0,0-.762-2.032c-.127-.191-.191-.381-.318-.572-.063-.063-.063-.127-.127-.191-.127-.191-.254-.318-.381-.508a2.76,2.76,0,0,0-.381-.445,7.866,7.866,0,0,0-1.4-1.143,3.573,3.573,0,0,0-1.143-.445,5.872,5.872,0,0,0-1.842-.254,5.62,5.62,0,0,0-4.953,2.985l-.127.254a1.388,1.388,0,0,1-.191.318,9.816,9.816,0,0,0-.953,2.731v.127a.656.656,0,0,1-.508.254c-.254-.064-.381-.191-.318-.381a2.657,2.657,0,0,1,.064-.445,10.157,10.157,0,0,1,2.35-4.636,5.727,5.727,0,0,1,.635-.572,5.915,5.915,0,0,1,3.937-1.4h.064a6.374,6.374,0,0,1,5.08,2.35,3.49,3.49,0,0,1,.445.572,11.537,11.537,0,0,1,1.524,3.3v.127A.356.356,0,0,1,141.271,86.731Z" transform="translate(-121.204 -80)" fill="#9f9c98"/>
    <path id="Path_41" data-name="Path 41" d="M134.816,88.42c-2.794,0-5.207-2.667-5.271-2.731a.314.314,0,0,1,.445-.445s2.35,2.54,4.826,2.54c2.54,0,5.652-2.1,5.652-2.1a.318.318,0,1,1,.381.508,12.077,12.077,0,0,1-6.033,2.223Z" transform="translate(-121.925 -81.88)" fill="#9f9c98"/>
    <path id="Path_42" data-name="Path 42" d="M135.717,86.507a.3.3,0,0,1-.318-.318A4.722,4.722,0,0,1,136.86,82.7a5.561,5.561,0,0,1,3.429-1.4h0a.318.318,0,1,1,0,.635,5.509,5.509,0,0,0-2.985,1.27,4.242,4.242,0,0,0-1.207,2.921q-.1.381-.381.381Z" transform="translate(-124.096 -80.474)" fill="#9f9c98"/>
    <path id="Path_43" data-name="Path 43" d="M149.371,88.417a14.63,14.63,0,0,1-2.667,8.192c-4.191,5.588-8.7,6.541-10.351,6.731h-.762a.349.349,0,0,1-.191-.318.34.34,0,0,1,.318-.318h.381c1.334-.127,5.842-.889,9.97-6.541a13.8,13.8,0,0,0,2.54-7.557V88.29a1.361,1.361,0,0,1,.063-.381,3.547,3.547,0,0,0-1.778-2.985,6.049,6.049,0,0,0-4-.7c-.318.064-.572.127-.635.127a2.761,2.761,0,0,0-.381-.445.33.33,0,0,1,.254-.127.922.922,0,0,1,.381-.064,6.961,6.961,0,0,1,4.89.762A3.84,3.84,0,0,1,149.371,88.417Z" transform="translate(-124.096 -81.304)" fill="#9f9c98"/>
  </g>
  <path id="Path_44" data-name="Path 44" d="M109.77,99.22a10.612,10.612,0,0,0-1.778-4.382,12.6,12.6,0,0,0-2.413-2.477,13.237,13.237,0,0,0-7.049-2.286,27.73,27.73,0,0,0-4,.063c-.127,0-.191.064-.254.191a6.779,6.779,0,0,0,.127,4.128h0c.064.191.127.445.191.635a8.118,8.118,0,0,0,.572,1.4c.254.508.508,1.016.826,1.524l.381.572a17.585,17.585,0,0,0,2.667,3.048,17.862,17.862,0,0,0-5.715,2.159.222.222,0,0,0-.127.064c-.191.127-.381.191-.572.318a24.07,24.07,0,0,0-2.985,2.1.391.391,0,0,0-.063.445,10.2,10.2,0,0,0,8.065,4.191,2.018,2.018,0,0,0,.889-.127c5.017-.445,8-2.286,9.653-4.382.064.064.064.064.127.064.127.063.191,0,.318,0a.307.307,0,0,0,.064-.445.2.2,0,0,0-.064-.127c.127-.254.254-.445.381-.7a9.313,9.313,0,0,0,1.016-3.429C109.9,101.315,109.961,100.363,109.77,99.22ZM98.4,110.333a9.649,9.649,0,0,1-8.192-3.62c1.143-.953,6.287-4.826,10.859-4.445a10.281,10.281,0,0,1,6.6,3.81C106.151,108.047,103.293,109.888,98.4,110.333Zm9.716-4.89a10.426,10.426,0,0,0-6.985-3.874H99.927A15.989,15.989,0,0,1,95.736,96.3a8.487,8.487,0,0,1-.953-5.461c1.207-.127,7.049-.445,10.415,2.159a9.985,9.985,0,0,1,4.128,8.891A7.4,7.4,0,0,1,108.119,105.443Z" transform="translate(-73.934 -83.661)" fill="#9f9c98"/>
  <path id="Path_45" data-name="Path 45" d="M95.637,97.423a3.3,3.3,0,0,0-.318.191c-.826.572-2.858,2.223-2.921,4.382a6.191,6.191,0,0,0,.127,1.588c.064.318.127.572.191.826a4.449,4.449,0,0,0,1.207,2.032l.127.127a.314.314,0,0,1,.063.445c-.063.191-.127.191-.254.191a.233.233,0,0,1-.191-.064,3.888,3.888,0,0,0-.381-.318,6.727,6.727,0,0,1-1.207-2.032h0a1.177,1.177,0,0,1-.127-.445,7.924,7.924,0,0,1-.254-2.223c.063-2.667,2.6-4.572,3.366-5.017h0a.786.786,0,0,0,.191-.127c.191-.064.381-.064.445.127C95.828,97.169,95.828,97.359,95.637,97.423Z" transform="translate(-74.724 -86.182)" fill="#9f9c98"/>
  <path id="Path_46" data-name="Path 46" d="M97.725,102.847a.3.3,0,0,1-.318.318H97.28c-.572.063-2.413.508-4.382,3.3l-.127.127c-.127.127-.191.191-.318.191h-.127a1.177,1.177,0,0,1-.127-.445h0a2.487,2.487,0,0,1,.508-.635,7.834,7.834,0,0,1,4.191-3.048,2.877,2.877,0,0,1,.508-.064A.256.256,0,0,1,97.725,102.847Z" transform="translate(-74.907 -88.241)" fill="#9f9c98"/>
  <g id="Group_8" data-name="Group 8" transform="translate(46.632 18.771)">
    <path id="Path_47" data-name="Path 47" d="M171.29,122.012c-1.461-2.286-4.572-2.921-6.795-2.731-.254,0-.508.063-.7.063-.254.064-.508.064-.762.127a7.465,7.465,0,0,0-4.382,2.286,4.272,4.272,0,0,0-.889,1.778,4.809,4.809,0,0,0-.063.953,2.341,2.341,0,0,0,.318,1.08,3.343,3.343,0,0,0,1.016,1.27,5.137,5.137,0,0,0,3.366,1.016,3.7,3.7,0,0,0,1.4-.191,5.388,5.388,0,0,0,2.731-1.842l.889-.889a5.3,5.3,0,0,1,.762-.508h0c1.461-.762,2.1-.635,2.477-.508a.726.726,0,0,0,.953-.318A1.764,1.764,0,0,0,171.29,122.012Zm-.254,1.334-.064.064c0-.064-.064-.064-.127-.064-.445-.127-1.27-.381-2.985.572l-.572.381h0l-.127.127c-.318.318-.7.635-1.08.953a5.05,5.05,0,0,1-2.35,1.715,5.692,5.692,0,0,1-4.318-.762,4.162,4.162,0,0,1-.889-1.08,2.867,2.867,0,0,1-.191-.826,3.143,3.143,0,0,1,.826-2.223,6.883,6.883,0,0,1,4.064-2.032c.127,0,.191-.064.318-.064h0c.318-.063.7-.063,1.08-.127h.7c2.858,0,4.7,1.27,5.461,2.477C171.036,122.965,171.1,123.282,171.036,123.346Z" transform="translate(-145.443 -113.095)" fill="#9f9c98"/>
    <path id="Path_48" data-name="Path 48" d="M174.278,134.53a4.365,4.365,0,0,1-1.524-.318.342.342,0,0,1,.254-.635c2.477,1.143,5.207-1.715,5.906-2.477-.953-1.524-4.763-2.858-6.16-3.3a.362.362,0,0,1,.191-.7c.254.063,5.652,1.651,6.668,3.874.064.127.064.254-.064.318a13.246,13.246,0,0,1-2.1,1.969A5.247,5.247,0,0,1,174.278,134.53Z" transform="translate(-150.844 -115.96)" fill="#9f9c98"/>
    <path id="Path_49" data-name="Path 49" d="M162.308,116.222a4.192,4.192,0,0,1-.127.572c0,.064-.064.127-.127.191h0a.382.382,0,0,1-.254.064h0a.425.425,0,0,1-.254-.445.633.633,0,0,1,.064-.254,5.066,5.066,0,0,0,.127-2.1,2.7,2.7,0,0,0-.127-.7,3.078,3.078,0,0,0-1.905-2.1,3.88,3.88,0,0,0-3.048.445,3.628,3.628,0,0,0-1.969,2.286c0,.064,0,.064-.064.127a11.214,11.214,0,0,0-.254,1.27,10.193,10.193,0,0,0,.064,3.81v.064a.361.361,0,0,1-.254.445.324.324,0,0,1-.318-.254.491.491,0,0,0-.064-.191,12.728,12.728,0,0,1,.127-4.953c0-.127.064-.191.064-.318.063-.254.127-.445.191-.7a4.452,4.452,0,0,1,2.159-2.159,4.667,4.667,0,0,1,3.62-.445,3.567,3.567,0,0,1,2.35,2.985c0,.191.064.381.064.508A8.106,8.106,0,0,1,162.308,116.222Z" transform="translate(-143.954 -109.972)" fill="#9f9c98"/>
    <path id="Path_50" data-name="Path 50" d="M155.64,125.453a1.867,1.867,0,0,0-.762-.635,2.588,2.588,0,0,0-1.143-.318,1.758,1.758,0,0,0-.572.064,2.348,2.348,0,0,0-.7.318l-.381.381a.222.222,0,0,1-.064.127,1.732,1.732,0,0,0,.508,1.969,1.684,1.684,0,0,0,.381.318c.064.064.127.064.191.127s.191.064.254.127a.222.222,0,0,1,.127.064,1.611,1.611,0,0,0,.762.127h.19a1.225,1.225,0,0,0,.635-.191,1.278,1.278,0,0,0,.7-.572v-.063C156.275,126.85,156.085,126.088,155.64,125.453Zm-.381,1.651a.573.573,0,0,1-.381.381c-.127.063-.254.063-.381.127h0a1.876,1.876,0,0,1-.826-.127h0a.481.481,0,0,1-.254-.127c-.063,0-.063-.064-.127-.064a1.438,1.438,0,0,1-.7-1.461c0-.064.064-.127.064-.191s.063-.064.063-.127a1.066,1.066,0,0,1,.889-.381,1.737,1.737,0,0,1,.889.254,1.618,1.618,0,0,1,.889,1.27A.917.917,0,0,1,155.259,127.1Z" transform="translate(-143.32 -115.012)" fill="#9f9c98"/>
    <path id="Path_51" data-name="Path 51" d="M144.539,116.443a.324.324,0,0,1-.318-.254c-.889-2.731,2.858-6.414,2.985-6.541.063-.064.191-.127.254-.064,2.286.318,3.429,4,3.493,4.191a.342.342,0,0,1-.635.254c0-.064-1.016-3.239-2.794-3.683-.635.635-3.366,3.683-2.731,5.779a.387.387,0,0,1-.191.445C144.6,116.443,144.6,116.443,144.539,116.443Z" transform="translate(-140.474 -109.559)" fill="#9f9c98"/>
    <path id="Path_52" data-name="Path 52" d="M166.679,138.843h0l-.127.127h0l-.064.064a13.378,13.378,0,0,1-3.048,2.032,9.061,9.061,0,0,1-3.747.953,5.577,5.577,0,0,1-2.985-.826,9.5,9.5,0,0,1-3.3-3.239,5.8,5.8,0,0,1-.445-.889,10.032,10.032,0,0,1-.762-3.874h0V133h0a13.163,13.163,0,0,1,.508-2.667,3.885,3.885,0,0,1,.318-.762c.064-.127.064-.191.127-.318,0-.064.063-.064.063-.127.064-.064.127-.127.191-.127s.064.064.127.064c.064.064.191.064.254.127h0v.254c0,.063,0,.063-.064.127s-.063.191-.127.254a11.126,11.126,0,0,0-.762,3.429h0a7.133,7.133,0,0,0,.191,2.032,8,8,0,0,0,4.064,5.4c3.493,2.1,7.621-1.016,8.764-1.969.127-.127.191-.191.254-.191.063-.063.063-.191.127-.254a2.858,2.858,0,0,0-.254-2.223,11.042,11.042,0,0,0-.7-1.143h0a.062.062,0,0,0-.063-.064h0a4.11,4.11,0,0,0-2.159-1.461,4.351,4.351,0,0,0-2.413.572c-1.143.445-2.286.953-3.493.381-1.524-.7-2.223-3.366-2.477-4.382a1.117,1.117,0,0,1-.063-.381c0-.127,0-.191.063-.254h0a.9.9,0,0,0,.381-.127c.127,0,.191.127.191.254s.063.191.063.318c.254,1.143.953,3.429,2.1,3.937.953.445,1.905.064,2.985-.381a4.841,4.841,0,0,1,2.794-.572,5.354,5.354,0,0,1,3.112,2.477h0c.127.191.191.381.318.572A3.437,3.437,0,0,1,166.679,138.843Z" transform="translate(-143.436 -116.654)" fill="#9f9c98"/>
    <path id="Path_53" data-name="Path 53" d="M143.607,142.912a5.811,5.811,0,0,1-1.016-.064c-2.032-.254-2.286-2.35-2.286-2.985a4.119,4.119,0,0,0-1.08-2.54,3.012,3.012,0,0,1-.127-4,7.917,7.917,0,0,1,2.794-2.032.342.342,0,0,1,.254.635,6.116,6.116,0,0,0-2.54,1.778,2.356,2.356,0,0,0,.063,3.112,5.861,5.861,0,0,1,1.27,2.985,2.142,2.142,0,0,0,1.715,2.35c1.207.127,4.382.508,5.207-4.191.063-.191.191-.318.381-.254s.318.191.254.381C147.989,141.324,146.4,142.912,143.607,142.912Z" transform="translate(-138.399 -117.484)" fill="#9f9c98"/>
    <path id="Path_54" data-name="Path 54" d="M166.352,141.177a.481.481,0,0,1-.254-.127s-1.969-1.969-3.937-1.969h0a18.1,18.1,0,0,0-2.54.254,10.982,10.982,0,0,1-4.318,0c-2.286-.635-3.048-3.937-3.112-4.064a.324.324,0,1,1,.635-.127s.762,3.048,2.6,3.62a10.92,10.92,0,0,0,4.064,0,17.231,17.231,0,0,1,2.6-.254h0c2.223,0,4.318,2.032,4.445,2.159a.307.307,0,0,1,0,.445A.233.233,0,0,1,166.352,141.177Z" transform="translate(-143.426 -118.798)" fill="#9f9c98"/>
    <path id="Path_55" data-name="Path 55" d="M162.472,115.9c-.064.127-.127.127-.254.127a.3.3,0,0,1-.318-.318.222.222,0,0,0-.127-.064,7.737,7.737,0,0,0-2.667.7.42.42,0,0,1-.381-.064c-1.08-1.207-1.778-1.207-2.413-.889a3.9,3.9,0,0,0-1.715,1.524c-.064.063-.127.127-.191.127a.233.233,0,0,1-.191.063c-.064,0-.127,0-.127-.063a.273.273,0,0,1-.127-.445,3.6,3.6,0,0,1,.381-.572.876.876,0,0,0,.19-.254h0c.064-.064.127-.127.191-.127a13.894,13.894,0,0,1,1.27-.889c1.016-.508,1.969-.254,3.048.889a6.548,6.548,0,0,1,2.6-.635,1.268,1.268,0,0,1,.572.127l.191.191A1.758,1.758,0,0,1,162.472,115.9Z" transform="translate(-144.055 -111.365)" fill="#9f9c98"/>
    <path id="Path_56" data-name="Path 56" d="M148.8,125.869a.453.453,0,0,0-.381-.191h-.127c-.191,0-.381.064-.572.064-1.4.191-3.747.508-4.445.191-1.334-.572-1.334-1.461-1.4-2.6a6.263,6.263,0,0,0-.191-1.524,1.749,1.749,0,0,0-.762-1.143c4.318-.572,5.906,2.286,6.287,3.048a.233.233,0,0,1,.064.191.328.328,0,0,0,.445.191h.064c0-.063.064-.127.064-.191s.064-.063.064-.127v-.127a3.026,3.026,0,0,1-.254-.508,6.238,6.238,0,0,0-4.826-3.175c-.19,0-.381-.064-.572-.064h0a6.972,6.972,0,0,0-1.588.127h-.063l-1.461.381h0c-.064,0-.064,0-.127.063a.137.137,0,0,0-.127.127,7.865,7.865,0,0,0-.127,2.6,5.254,5.254,0,0,0,1.905,3.683,4.848,4.848,0,0,0,.7.508l.762.381a4.9,4.9,0,0,0,1.842.318,7.376,7.376,0,0,0,3.81-1.27c.254-.191.508-.318.762-.508.064-.064.127-.064.19-.127a.062.062,0,0,0,.064-.064A.193.193,0,0,0,148.8,125.869Zm-7.684.572c-2.159-1.715-1.778-4.636-1.588-5.4a1.116,1.116,0,0,1,1.4.953,5.29,5.29,0,0,1,.19,1.4c.064,1.143.127,2.477,1.842,3.175a11.7,11.7,0,0,0,4.191-.064A4.913,4.913,0,0,1,141.115,126.441Z" transform="translate(-138.51 -113.333)" fill="#9f9c98"/>
    <path id="Path_57" data-name="Path 57" d="M149.118,127.139h0a6.814,6.814,0,0,1-2.413-.889c-.191-.064-.191-.318-.127-.445.064-.191.318-.191.445-.127a6.263,6.263,0,0,0,2.1.762.356.356,0,0,1,.318.381A.3.3,0,0,1,149.118,127.139Z" transform="translate(-141.37 -115.428)" fill="#9f9c98"/>
    <path id="Path_58" data-name="Path 58" d="M156.1,123.1h-.127a.328.328,0,0,1-.191-.445l.7-1.778a.342.342,0,1,1,.635.254l-.7,1.778A.349.349,0,0,1,156.1,123.1Z" transform="translate(-144.736 -113.611)" fill="#9f9c98"/>
    <path id="Path_59" data-name="Path 59" d="M160.218,127.753a.3.3,0,0,1-.318-.318.4.4,0,0,1,.318-.381l2.286-.254a.351.351,0,1,1,.064.7l-2.35.254Z" transform="translate(-146.246 -115.851)" fill="#9f9c98"/>
    <path id="Path_60" data-name="Path 60" d="M148,135.941a.382.382,0,0,1-.254-.063.307.307,0,0,1,0-.445l1.524-1.588a.314.314,0,1,1,.445.445l-1.524,1.588A.233.233,0,0,1,148,135.941Z" transform="translate(-141.775 -118.387)" fill="#9f9c98"/>
  </g>
  <path id="Path_61" data-name="Path 61" d="M80.166,153.094c0-.127-.064-.191-.064-.254-.064-.127-.127-.254-.254-.254h-.063c-.826-.127-7.049-1.143-11.113,3.048-2.223,2.286-3.112,5.842-3.429,8.383a28.807,28.807,0,0,0-.254,5.017.33.33,0,0,0,.127.254.233.233,0,0,0,.191.064h.381c.254,0,.7.063,1.207.063a22.742,22.742,0,0,0,3.366-.191c3.556-.508,6.35-1.905,8-4C81.944,160.651,80.483,154.364,80.166,153.094Zm-2.413,11.685c-3.048,3.747-9.145,4-11.431,3.937H65.75v-.191c-.063-1.842,0-8.827,3.493-12.383,3.366-3.493,8.446-3.175,10.034-2.985a.476.476,0,0,1,.318.063c0,.127.064.254.064.445C80.039,155.507,80.864,160.841,77.753,164.779Z" transform="translate(-64.968 -106.418)" fill="#9f9c98"/>
  <path id="Path_62" data-name="Path 62" d="M94.307,130.939a.492.492,0,0,0-.063-.191,20.859,20.859,0,0,0-2.35-4.064c-2.159-2.794-4.636-4.128-7.176-3.81-6.1.635-10.351,6.1-10.542,6.35a.391.391,0,0,0,.063.445c.254.191,5.144,4.382,9.526,4.636h.953a16.758,16.758,0,0,0,7.748-1.969h0a10.869,10.869,0,0,0,1.715-1.016.062.062,0,0,0,.064-.064l.063-.063A.193.193,0,0,0,94.307,130.939Zm-10.478,2.6c-3.493-.191-7.494-3.239-8.7-4.191-.063,0-.063-.064-.127-.064.191-.191.508-.572.953-1.016h0c1.588-1.651,4.89-4.382,8.891-4.89,4.382-.508,7.3,4.382,8.383,6.6h0a7.5,7.5,0,0,1,.381.826c-.063,0-.127.064-.191.127h0A16.311,16.311,0,0,1,83.829,133.542Z" transform="translate(-68.313 -95.63)" fill="#9f9c98"/>
  <path id="Path_63" data-name="Path 63" d="M94.11,133.571a.233.233,0,0,1-.191-.064c-.063-.063-4.255-3.3-8.065-3.747a19.681,19.681,0,0,0-8.129.762,12.661,12.661,0,0,0-2.921,1.334.318.318,0,1,1-.381-.508c.191-.127,4.445-2.985,11.494-2.223,4,.445,8.256,3.683,8.383,3.874a.314.314,0,0,1,.063.445A.254.254,0,0,1,94.11,133.571Z" transform="translate(-68.37 -97.882)" fill="#9f9c98"/>
  <path id="Path_64" data-name="Path 64" d="M105.332,149.433c-1.461-3.048-3.175-4.89-7.938-5.969-.127,0-.254-.064-.381-.064h-.254a.062.062,0,0,0-.064.064l-.064.064h0v.064h0a7.493,7.493,0,0,0-.508,1.143h0a13.865,13.865,0,0,0-.762,2.667,9.063,9.063,0,0,0,1.4,7.494c3.493,4.572,9.081,5.017,9.97,5.08h.127a.2.2,0,0,0,.127-.064.062.062,0,0,0,.063-.063.481.481,0,0,0,.127-.254h0C107.047,159.213,106.92,152.672,105.332,149.433Zm.318,9.843a13.385,13.385,0,0,1-8.383-4.7c-2.477-3.239-1.334-7.43-.572-9.462a7.151,7.151,0,0,1,.445-.953.233.233,0,0,1,.191.064c4.509,1.016,6.033,2.667,7.43,5.588,1.207,2.54,1.524,7.3,1.651,9.208v.381a4.689,4.689,0,0,1-.762-.127Z" transform="translate(-75.973 -103.138)" fill="#9f9c98"/>
  <path id="Path_65" data-name="Path 65" d="M91.083,135.953l-4.572,4.572-.191.191-.635.635-.508.508h0l-4.636,4.7-.254.318-.508.572L66.443,162.5h0l-.572.635H65.49a.142.142,0,0,1-.127-.254l.508-.572L79.4,146.94l.508-.635.191-.254,9.145-9.208h0l1.207-1.207.191-.191a.307.307,0,0,1,.445,0c0,.064.063.064.063.127h0A.39.39,0,0,1,91.083,135.953Z" transform="translate(-65.089 -100.2)" fill="#9f9c98"/>
  <path id="Path_66" data-name="Path 66" d="M107.561,160.038a.233.233,0,0,1-.191-.064c-.064-.064-9.335-6.414-9.97-16.194a.351.351,0,0,1,.7-.064c.635,9.462,9.589,15.622,9.653,15.686a.314.314,0,0,1,.064.445C107.751,159.975,107.688,160.038,107.561,160.038Z" transform="translate(-76.804 -103.138)" fill="#9f9c98"/>
  <path id="Path_67" data-name="Path 67" d="M137.6,148.988c-.127-.063-.191-.127-.318-.191a3.027,3.027,0,0,0-3.747.7,7.619,7.619,0,0,0-1.143,4.7.33.33,0,0,0,.127.254.233.233,0,0,0,.19.064,8.209,8.209,0,0,0,3.493-1.207,4.31,4.31,0,0,0,1.588-3.556h0v-.445A.349.349,0,0,0,137.6,148.988Zm-1.842,3.874a7.046,7.046,0,0,1-2.731.953,6.773,6.773,0,0,1,1.016-3.874,1.915,1.915,0,0,1,1.588-.762,4.051,4.051,0,0,1,1.461.381C137.025,151.465,136.581,152.164,135.755,152.862Z" transform="translate(-89.567 -104.98)" fill="#9f9c98"/>
  <path id="Path_68" data-name="Path 68" d="M153.4,156.49a8.134,8.134,0,0,0-3.048-1.842,5.8,5.8,0,0,0-4.572,1.143,1.388,1.388,0,0,1-.318.191.2.2,0,0,0-.064.127h0v.127h0c0,.064,0,.191.064.191a5.371,5.371,0,0,0,.826.762,4.944,4.944,0,0,0,3.048,1.207h.127a7.25,7.25,0,0,0,3.937-1.461.33.33,0,0,0,.127-.254C153.529,156.553,153.465,156.553,153.4,156.49Zm-3.937,1.27a4.57,4.57,0,0,1-3.239-1.461,5.213,5.213,0,0,1,4.064-1.016,7.01,7.01,0,0,1,2.413,1.461A7.14,7.14,0,0,1,149.464,157.76Z" transform="translate(-94.322 -107.21)" fill="#9f9c98"/>
  <path id="Path_69" data-name="Path 69" d="M144.82,158.107a3.74,3.74,0,0,0-.318-.826.785.785,0,0,0-.127-.191.2.2,0,0,0-.19-.191.382.382,0,0,0-.254.064h0l-.064.064a7.852,7.852,0,0,0-2.1,2.35,5.181,5.181,0,0,0,.254,4.509q.1.191.191.191h.127a.062.062,0,0,0,.064-.064,5.047,5.047,0,0,0,2.54-3.175A6.268,6.268,0,0,0,144.82,158.107Zm-.445,2.54a4.355,4.355,0,0,1-1.905,2.54,4.5,4.5,0,0,1-.127-3.62,5.993,5.993,0,0,1,1.715-1.842A6.249,6.249,0,0,1,144.376,160.647Z" transform="translate(-92.853 -108.065)" fill="#9f9c98"/>
  <path id="Path_70" data-name="Path 70" d="M126.575,111.462a3.752,3.752,0,0,0-2.286-.762,4.875,4.875,0,0,0-1.969.381,8.8,8.8,0,0,0-2.794,1.715,4.7,4.7,0,0,0-.762.826.572.572,0,0,0-.064.318.137.137,0,0,0,.127.127l.064.064a8.029,8.029,0,0,0,1.842.508h0a3.906,3.906,0,0,0,.889.063,5.592,5.592,0,0,0,1.08-.127h0c.127-.064.191-.064.318-.127a9.431,9.431,0,0,0,3.429-2.413l.127-.127A.307.307,0,0,0,126.575,111.462Zm-3.747,2.413a5.437,5.437,0,0,1-3.239-.191,7.852,7.852,0,0,1,2.921-1.969,4.155,4.155,0,0,1,3.3.063A8,8,0,0,1,122.828,113.875Z" transform="translate(-84.578 -91.204)" fill="#9f9c98"/>
  <path id="Path_71" data-name="Path 71" d="M137.343,118.172c0-.127-.064-.318-.064-.508a8.342,8.342,0,0,0-1.524-3.366c-.127-.127-.191-.318-.318-.381-.064-.127-.127-.127-.127-.191a.062.062,0,0,0-.063-.064.233.233,0,0,0-.191-.064.33.33,0,0,0-.254.127,4.59,4.59,0,0,0-.254.445,5.919,5.919,0,0,0-.7,3.683,9.7,9.7,0,0,0,1.969,3.874.482.482,0,0,0,.254.127.233.233,0,0,0,.191-.064,2.027,2.027,0,0,0,.635-.826A4.46,4.46,0,0,0,137.343,118.172Zm-1.27,2.858a9.948,9.948,0,0,1-1.588-3.3,5.379,5.379,0,0,1,.635-3.175,6.689,6.689,0,0,1,1.461,3.239A3.884,3.884,0,0,1,136.073,121.03Z" transform="translate(-90.076 -92.263)" fill="#9f9c98"/>
  <g id="Group_9" data-name="Group 9" transform="translate(53.269 6.716)">
    <path id="Path_72" data-name="Path 72" d="M162.726,100a.222.222,0,0,0-.064-.127c-.063-.127-.191-.127-.318-.127a1.994,1.994,0,0,1-.572.064,5.14,5.14,0,0,1-2.731-.191A5.525,5.525,0,0,0,160,98.8a3.415,3.415,0,0,0,.826-1.842v-.191a.349.349,0,0,0-.191-.318.2.2,0,0,1-.127-.064h0a4.357,4.357,0,0,0-1.778-.318,6.435,6.435,0,0,0-1.651.254,2.556,2.556,0,0,1,.127-1.334,4.108,4.108,0,0,1,1.588-1.715.137.137,0,0,0,.127-.127v-.191a.422.422,0,0,0-.318-.254h-.191a3.784,3.784,0,0,0-3.429,2.6,5.953,5.953,0,0,0-.381,2.159c-.064.889-.064,1.334-.635,1.651A38.964,38.964,0,0,0,149.2,103.5c-.127.127-.191.254-.254.254a.307.307,0,0,0,0,.445c.063.063.127.063.254.063h.063c.064,0,.064,0,.127-.063a1.1,1.1,0,0,1,.191-.254.233.233,0,0,0,.064.191.33.33,0,0,0,.254.127.8.8,0,0,1,.508.064c.064-.064.127-.064.191-.127,1.715-1.08,6.033-3.366,7.938-2.35a2.852,2.852,0,0,0,2.35.254,3.375,3.375,0,0,0,1.778-1.842C162.789,100.13,162.789,100.066,162.726,100Zm-2.286,1.334a2.448,2.448,0,0,1-1.842-.254c-2.413-1.207-7.3,1.588-8.51,2.35a31.985,31.985,0,0,1,4.128-3.874c.889-.508.889-1.27.953-2.159a5.77,5.77,0,0,1,.318-1.969,3.227,3.227,0,0,1,1.715-1.905,1.789,1.789,0,0,0-.635,1.334,3.83,3.83,0,0,0-.127,2.032c0,.063.064.127.127.191h.254a8.161,8.161,0,0,1,1.778-.318,3.055,3.055,0,0,1,1.334.254,2.519,2.519,0,0,1-.635,1.334,7.412,7.412,0,0,1-1.27,1.016c-.127.063-.191.127-.191.254a.481.481,0,0,0,.127.254,3.4,3.4,0,0,0,1.842.635,7.3,7.3,0,0,0,1.715-.064A2.552,2.552,0,0,1,160.44,101.337Z" transform="translate(-148.85 -91.351)" fill="#9f9c98"/>
    <path id="Path_73" data-name="Path 73" d="M172.251,93.322c.889-.889,1.08-1.08.953-1.4-.254-.762-3.429-1.461-5.334-1.334a9.89,9.89,0,0,0-4.064,1.27h0c-.19.063-.19.318-.127.445.064.191.318.191.445.127a.786.786,0,0,1,.191-.127,8.58,8.58,0,0,1,8.192-.254,8.624,8.624,0,0,1-.762.762c-.254.254-.381.445-.508.572-.191.254-.254.381-.127.572a.786.786,0,0,0,.191.127.691.691,0,0,0,.318-.063,1.948,1.948,0,0,1,.826-.064,1.072,1.072,0,0,1-.191.445,13.059,13.059,0,0,1-4.89,4.445c-.064,0-.127.063-.191.127a.283.283,0,0,0,0,.318.349.349,0,0,0,.318.191c.064,0,.127-.064.191-.064a1.757,1.757,0,0,0,.445-.254,14.389,14.389,0,0,0,4.7-4.445c.318-.508.381-.953.127-1.207A1.28,1.28,0,0,0,172.251,93.322Z" transform="translate(-154.248 -90.576)" fill="#9f9c98"/>
    <path id="Path_74" data-name="Path 74" d="M166.708,97.954c-.127,0-.318-.127-.318-.254a.28.28,0,0,1,.254-.381,15.056,15.056,0,0,0,5.4-2.159.318.318,0,0,1,.381.508,15.287,15.287,0,0,1-5.715,2.286Z" transform="translate(-155.245 -92.224)" fill="#9f9c98"/>
  </g>
  <path id="Path_75" data-name="Path 75" d="M141.684,149.223a.33.33,0,0,1-.254-.127,45.647,45.647,0,0,1-7.239-14.225.324.324,0,0,1,.635-.127,44.054,44.054,0,0,0,7.113,13.971.307.307,0,0,1-.064.445A.233.233,0,0,1,141.684,149.223Z" transform="translate(-90.225 -99.881)" fill="#9f9c98"/>
</svg>
